<svg xmlns="http://www.w3.org/2000/svg" width="426.881" height="230.814" viewBox="0 0 426.881 230.814">
  <g id="レイヤー_2" data-name="レイヤー 2" transform="translate(0 -0.001)">
    <g id="グループ_1610" data-name="グループ 1610" transform="translate(0 0.001)">
      <path id="パス_832" data-name="パス 832" d="M99.678,3.7c-1.8-10.145-16.085,3.5-19.127,6.247-6.533,5.907-11.364,9.739-17.106,14.691l-9.552,7.027a6.78,6.78,0,0,1-2.866,1.087.617.617,0,0,1-.714-.45,7.266,7.266,0,0,1-.472-3.931,91.923,91.923,0,0,0,1.943-17.315A11.224,11.224,0,0,0,49.8,4.414c-7.741-2.778-6.862,5.2-6.764,9.563-.494,8.2-3.6,17.557-.011,25.4q5.616,3.92,11.759.1A197.973,197.973,0,0,0,89.148,11.419a28.984,28.984,0,0,1,9.519-6.533c.769-.253,1.109-.648,1.01-1.186Z" transform="translate(4.048 -0.001)" fill="#fff"/>
      <path id="パス_833" data-name="パス 833" d="M149.829,26.3l14.757-2.877L151.652,21.7a.616.616,0,0,1-.505-.78c1.01-3.36,7.192-13.966-1.515-12.989a1.954,1.954,0,0,0-1.614,1.252l-4.743,12.484-1.8.165a6.985,6.985,0,0,0-4.26,1.625,1.022,1.022,0,0,0-.373.922q.214,1.8,2.47,1.878l1.921-.1c.472.253.659.549.538.878a70.539,70.539,0,0,1-4.249,9.311,1.654,1.654,0,0,0,1.021,2.679c3.019,1.109,4.864.121,5.534-2.943L149,26.931a1.184,1.184,0,0,1,.834-.626Z" transform="translate(13.406 0.77)" fill="#fff"/>
      <path id="パス_834" data-name="パス 834" d="M98.519,16.8a8.8,8.8,0,0,0-6.807,1.142,1.065,1.065,0,0,0-.516.867,29.057,29.057,0,0,1-2.888,10.5L86.9,35.346a.7.7,0,0,0,.56.933c1.087.3,2.536-.022,4.348-.933a65.607,65.607,0,0,0,7.6-17.052,1.051,1.051,0,0,0-.889-1.493Z" transform="translate(8.511 1.621)" fill="#fff"/>
      <path id="パス_835" data-name="パス 835" d="M244.079,27.405a.334.334,0,0,0-.044-.428.32.32,0,0,0-.428-.033c-2.35,1.713-19.862,10.5-18.171,1.493a.793.793,0,0,1,.725-.637c4.666-.329,14.943-3.415,11.309-9.794-3.162-3.755-11.144.264-13.911,2.8l-.318.527q-7.065,7.3-1.735,13.3a9.573,9.573,0,0,0,4.326,1.954c6.775,1.449,14.581-3.887,18.248-9.179Z" transform="translate(21.477 1.613)" fill="#fff"/>
      <path id="パス_836" data-name="パス 836" d="M337.663,39.277a1.259,1.259,0,0,0,.725-.659c3.557-7.049,5.051-13.1,14.285-13.264a35.355,35.355,0,0,0,13.022-2.778c-2.679.055-4.513.154-7.071-.911-5.106-2.13-8.312-2.4-12.363.373a.739.739,0,0,1-1.1-.9l.593-1.372a1.057,1.057,0,0,0-.406-1.307l-2.975-1.845a.829.829,0,0,0-1.109.11c-2.7,2.558-3.766,6.84-5.314,11.331l-3.2,8.981a1.055,1.055,0,0,0,.1.889q1.663,2.6,4.809,1.351Z" transform="translate(32.596 1.61)" fill="#fff"/>
      <path id="パス_837" data-name="パス 837" d="M217.142,18.047l-6.236-.417-6.807.4a22.607,22.607,0,0,0-11.946,10.453c.165.242.044.538-.384.889-.264,2.5-2.295,4.392,1.142,6.215q5.188,1.334,10.014-2.394l5.556-3.546c.45-.3.571-.187.362.307-3.755,8.948-10.145,19.862-19.972,23.1-1.724.033-2.4-.538-2.064-1.713q.988-3.376,5.347-6.291c-.1-.45-.34-.67-.7-.637l-5.8,4.864L184.609,50.6q-2.026,4.727,5.38,6.522c11.649-2.042,19.566-13.911,23.782-24.507L217.6,20.232a1.307,1.307,0,0,0,.4-1.57.949.949,0,0,0-.856-.615Zm-9.223,5.314a13.711,13.711,0,0,1-4.93,3.81,6.409,6.409,0,0,1-2.778,1.559c-.6.066-.681-.11-.242-.527l4.205-3.909a6.9,6.9,0,0,1,3.448-1.493Q208.479,22.7,207.919,23.361Z" transform="translate(18.044 1.726)" fill="#fff"/>
      <path id="パス_838" data-name="パス 838" d="M131.5,33.729a.892.892,0,0,1-.527-.791c-.373-5.479-.417-12.319-8.6-10.639q-3.212.659-9.3,5.556l4.4-7.148a.786.786,0,0,0-.132-.988,5.516,5.516,0,0,0-3.184-1.351q-9.042-4.019-10.376-13.494-3.821-1.63-5.863.428c-2.317,3.25,1.438,5.2,3.832,6.039a50.114,50.114,0,0,0,9.75,7.763,91.306,91.306,0,0,1-8.894,8.07,1.325,1.325,0,0,0-.538,1.1c.022.439.22.538.582.307l4.491-2.866a.463.463,0,0,1,.67.582,38.949,38.949,0,0,0-2.976,9.607,2.381,2.381,0,0,0,2.745,2.756,8,8,0,0,0,5.281-3.678c3.645-2.888,6.313-5.8,10.661-6.709.439-.088.67.088.681.538a21.431,21.431,0,0,0,1.932,8.224,1.671,1.671,0,0,0,.791.834c5.775,2.965,12.6-3.876,15.5-7.872-3.261,1.691-7.071,5.633-10.936,3.733Z" transform="translate(9.523 0.405)" fill="#fff"/>
      <path id="パス_839" data-name="パス 839" d="M302.129,35.7a.613.613,0,0,1,.845.22,3.853,3.853,0,0,0,4.568,1.823c6.28-1.329,9.673-4.491,15.174-6.182,1.658,1.7,2.613,4,4.414,5.2,4.458,3.008,7.916-.187,10.771-3.481.505-.593.417-.714-.274-.351-2.536,1.307-6.807,3.942-7.389-1.186a1.617,1.617,0,0,1,.242-1.076q2.223-3.508-2.339-5.786L322.858,26.2A28.047,28.047,0,0,0,316.5,28.97a.712.712,0,0,1-.626.077c-.417-.154-.45-.362-.088-.626,4.359-3.151,7.807-6.4,12.934-3.843a1.3,1.3,0,0,0,1.351-.845c1.2-3.272-2.119-5.38-4.886-5.523-6.258-.329-15.547,6.829-19.544,11.276l-2.91,3.327a1.61,1.61,0,0,1-.9.527l-9.465,2.2c-6.621.494-19.643,2.58-15.448-8.059,3.283-8.334,16.294-16.579,23.8-18.94a34.539,34.539,0,0,0,4.952-2.02c1.329-13.373-22.267,3.9-26.714,7.4a34.7,34.7,0,0,0-9.827,12.846c-3.272,21.861,23.4,14.372,32.994,8.938Z" transform="translate(26.341 0.147)" fill="#fff"/>
      <path id="パス_840" data-name="パス 840" d="M157.239,35.762a1.188,1.188,0,0,0,.988.582c6.566.143,11.847-3.909,17.875-6.478a15.662,15.662,0,0,0,4.271,5.051c4.3,3.151,8.883.549,11.09-3.59.264-.494.165-.593-.307-.274-2.306,1.581-4.326,3.788-6.873,1.032a1.284,1.284,0,0,1-.34-.922l.242-6.313a5.223,5.223,0,0,1-1.878-1.087q-2.536-.708-6.215,1.021l-8.312,3.953a.272.272,0,0,1-.318-.088.253.253,0,0,1,.044-.329A33.81,33.81,0,0,1,177.64,22.07a1.637,1.637,0,0,1,1-.055l4,1.043.955-2.108a1.07,1.07,0,0,0-.033-.966c-3.7-6.939-13.692-.867-18.753,2.624-2.9,2.262-10.508,8.092-7.565,13.154Z" transform="translate(15.34 1.645)" fill="#fff"/>
      <path id="パス_841" data-name="パス 841" d="M211.127,176.564c-4.579-3-9.849-6.346-15.833-9.937a.984.984,0,0,0-1.372.362c-2.02,3.8-6.456,6.2-11.452,6.2-6.687,0-11.726-3.107-14.471-16.162a.988.988,0,0,0-.977-.791l-18.874.209a.99.99,0,0,0-.977,1.1c2.185,20.334,14.79,32.478,35.5,32.478,13.406,0,23.3-4.227,28.723-12.078a.98.98,0,0,0-.275-1.372Z" transform="translate(14.418 15.306)" fill="#fff"/>
      <path id="パス_842" data-name="パス 842" d="M191.176,133.043c-14.043-10.266-19.632-17.4-19.632-25.715,0-7.829,5-10.925,11.825-10.925s10.255,4.908,10.683,11.079a1,1,0,0,0,.966.944l18.336.351a.994.994,0,0,0,1.01-1.01C213.926,92.4,203.594,80.11,183.172,80.11S150.09,90.541,150.09,108.471c0,13.044,6.95,22.333,24.891,35.541,13.011,9.519,18.929,15.394,19.731,23.727a.97.97,0,0,0,.417.714c6.006,4.1,11.77,8.2,17.183,12.242a.972.972,0,0,0,1.493-.417,32.339,32.339,0,0,0,2.053-11.814c0-14.186-6.753-22.212-24.693-35.421Z" transform="translate(14.705 7.847)" fill="#fff"/>
      <path id="パス_843" data-name="パス 843" d="M371.075,80.551c-21.7,0-33.543,14.076-33.543,30.644v54.5c0,16.382,8.367,27.636,23.892,30.82a.3.3,0,0,1,.154.527c-9.552,8.356-35.926,18.018-59.082,18.018s-43.117-3.612-74.937-14.987a.311.311,0,0,0-.285.549c10.2,6.621,40.834,22.3,74,22.3,35.783,0,60.542-8.312,91.9-31.688,7.444-5.545,11.452-14.3,11.452-25.55V112.282c0-19.5-11.858-31.742-33.554-31.742Zm11.452,86.367c0,8.707-4.425,12.012-11.452,12.012s-11.452-3.3-11.452-12.012V111.075c0-8.707,4.425-12.012,11.452-12.012s11.452,3.3,11.452,12.012Z" transform="translate(22.253 7.889)" fill="#fff"/>
      <path id="パス_844" data-name="パス 844" d="M238.45,165.7c0,19.5,11.847,31.742,33.543,31.742S305.547,185.2,305.547,165.7V154.651a.984.984,0,0,0-.988-.988H284.433a.984.984,0,0,0-.988.988v12.275c0,8.707-4.425,12.012-11.452,12.012s-11.452-3.3-11.452-12.012V111.084c0-8.707,4.425-12.012,11.452-12.012s11.452,3.3,11.452,12.012v8.938a.984.984,0,0,0,.988.988h20.126a.984.984,0,0,0,.988-.988V112.3c0-19.5-11.858-31.742-33.554-31.742S238.45,94.636,238.45,111.2v54.5Z" transform="translate(23.362 7.891)" fill="#fff"/>
      <path id="パス_845" data-name="パス 845" d="M25.978,104.672l-4.4-21.762a.978.978,0,0,0-.966-.791H.988a.991.991,0,0,0-.966,1.2l4.941,23.189a.977.977,0,0,0,1.065.769q9.454-1,19.017-1.427a.979.979,0,0,0,.922-1.175Z" transform="translate(0 8.044)" fill="#fff"/>
      <path id="パス_846" data-name="パス 846" d="M73.016,81.55H54.251a1,1,0,0,0-.966.78l-4.853,22.585a.973.973,0,0,0,.9,1.186c6.061.362,12.111.922,18.139,1.724a.982.982,0,0,0,1.087-.758l5.424-24.309a.98.98,0,0,0-.966-1.2Z" transform="translate(4.743 7.988)" fill="#fff"/>
      <path id="パス_847" data-name="パス 847" d="M67.992,118.616c-6.28-.571-12.385-.878-18.3-.966a.989.989,0,0,0-.977.78L38.577,165.555h-.4l-9.388-46.433a.985.985,0,0,0-1.054-.791c-6.665.516-12.945,1.274-18.786,2.185a.98.98,0,0,0-.8,1.186L23,191.324a.988.988,0,0,0,.966.78H51.95a.988.988,0,0,0,.966-.769L68.87,119.824a1,1,0,0,0-.878-1.208Z" transform="translate(0.797 11.525)" fill="#fff"/>
      <path id="パス_848" data-name="パス 848" d="M121.007,132.115c-2.9-1.043-5.852-2.086-8.861-3.1q-5.386-1.812-10.694-3.316a.988.988,0,0,0-1.252.955v63.759a.984.984,0,0,0,.988.988h19.478a.984.984,0,0,0,.988-.988V133.049a1,1,0,0,0-.648-.933Z" transform="translate(9.817 12.31)" fill="#fff"/>
      <path id="パス_849" data-name="パス 849" d="M120.666,81.55H101.188a.984.984,0,0,0-.988.988v32.818a.979.979,0,0,0,.681.933c2.273.725,4.546,1.482,6.8,2.284,4.052,1.438,8.268,3.1,12.594,4.941a.986.986,0,0,0,1.372-.9V82.549a.984.984,0,0,0-.988-.988Z" transform="translate(9.817 7.988)" fill="#fff"/>
    </g>
  </g>
</svg>
