<svg xmlns="http://www.w3.org/2000/svg" width="20.999" height="20.992" viewBox="0 0 20.999 20.992">
  <path id="合体_32" data-name="合体 32" d="M6830.956,20606.994a5.975,5.975,0,0,1-5.958-5.957v-8.078a5.975,5.975,0,0,1,5.958-5.957h8.083a5.975,5.975,0,0,1,5.958,5.957v8.078a5.975,5.975,0,0,1-5.958,5.957Zm-3.543-14.035v8.078a3.545,3.545,0,0,0,3.543,3.543h8.083a3.545,3.545,0,0,0,3.543-3.543v-8.078a3.55,3.55,0,0,0-3.543-3.549h-8.083A3.55,3.55,0,0,0,6827.413,20592.959Zm2.266,4.039a5.319,5.319,0,1,1,5.316,5.316A5.315,5.315,0,0,1,6829.678,20597Zm2.41,0a2.906,2.906,0,1,0,2.907-2.906A2.909,2.909,0,0,0,6832.088,20597Zm6.951-5.316a1.275,1.275,0,1,1,1.277,1.271A1.273,1.273,0,0,1,6839.039,20591.682Z" transform="translate(-6824.498 -20586.502)" fill="#000" stroke="rgba(0,0,0,0)" stroke-miterlimit="10" stroke-width="1"/>
</svg>
