<svg xmlns="http://www.w3.org/2000/svg" width="179.175" height="182.325" viewBox="0 0 179.175 182.325">
  <path id="パス_850" data-name="パス 850" d="M17.7-55.125h7.875L17.175,0h-8.1L.675-55.125H8.55l4.05,30.3.3,2.325h.45l.3-2.325Zm13.425,0h8.1V0h-8.1Zm24.525,26.4-.675-2.55h-.45V0H47.1V-55.125h7.2L62.175-26.4l.675,2.55h.45V-55.125h7.425V0h-7.2ZM75.75-46.8v-8.325h23.4V-46.8H91.5V0H83.4V-46.8ZM100.275,0,108.6-55.125h9.9L126.825,0H118.95l-1.5-11.25h-7.8L108.15,0ZM114-37.2l-.225-1.425h-.45L113.1-37.2l-2.325,17.4h5.55Zm31.425,1.875V-43.8a5,5,0,0,0-1.05-3.45,2.335,2.335,0,0,0-1.65-.6,2.505,2.505,0,0,0-2.4,2.025,5.748,5.748,0,0,0-.3,2.025v33.15A4.777,4.777,0,0,0,141.15-7.2a2.148,2.148,0,0,0,1.575.6,2.369,2.369,0,0,0,2.4-2.025,5.243,5.243,0,0,0,.3-2.025v-9.975H142.2V-27.45h11.325V0h-4.8l-.975-2.625A8.061,8.061,0,0,1,141.45.6a8.213,8.213,0,0,1-5.775-1.875,10.011,10.011,0,0,1-2.85-4.05,15.087,15.087,0,0,1-.9-6V-43.8a14.948,14.948,0,0,1,1.35-5.925,10.323,10.323,0,0,1,3.15-4.125,10.318,10.318,0,0,1,6.3-1.875,10.081,10.081,0,0,1,6.225,1.875,10.53,10.53,0,0,1,3.225,4.125,14.948,14.948,0,0,1,1.35,5.925v8.475Zm15.9-19.8H179.85V-46.8H169.425v14.475h7.5v8.85h-7.5v15.15H179.85V0H161.325ZM24.075,44.1v7.575a15.018,15.018,0,0,1-1.35,6,10.319,10.319,0,0,1-3.225,4.05A9.627,9.627,0,0,1,13.275,63.6a9.852,9.852,0,0,1-6.3-1.875,10.111,10.111,0,0,1-3.15-4.05,15.018,15.018,0,0,1-1.35-6V19.2a14.948,14.948,0,0,1,1.35-5.925A10.323,10.323,0,0,1,6.975,9.15a10.318,10.318,0,0,1,6.3-1.875A10.081,10.081,0,0,1,19.5,9.15a10.53,10.53,0,0,1,3.225,4.125,14.948,14.948,0,0,1,1.35,5.925v7.575H16.5V19.2a4.723,4.723,0,0,0-1.2-3.45,2.728,2.728,0,0,0-4.35,1.425,8.105,8.105,0,0,0-.375,2.025V51.675a5.173,5.173,0,0,0,1.275,3.45,2.148,2.148,0,0,0,1.575.6A2.612,2.612,0,0,0,16.2,53.7a5.243,5.243,0,0,0,.3-2.025V44.1Zm4.5,18.9L36.9,7.875h9.9L55.125,63H47.25l-1.5-11.25h-7.8L36.45,63ZM42.3,25.8l-.225-1.425h-.45L41.4,25.8,39.075,43.2h5.55ZM75.225,63l-4.2-23.25H68.85V63h-8.1V7.875h8.1c9.675,0,13.8,5.475,13.8,15.9,0,5.475-1.425,10.425-4.5,12.525L83.325,63ZM68.85,32.25a5.627,5.627,0,0,0,3.825-1.2c1.2-1.05,2.175-3.075,2.175-6.975s-.975-6-2.175-7.05A5.534,5.534,0,0,0,68.85,15.9ZM17.7,70.875h7.875L17.175,126h-8.1L.675,70.875H8.55l4.05,30.3.3,2.325h.45l.3-2.325Zm13.425,0h8.1V126h-8.1Zm29.4,14.775a18.094,18.094,0,0,0-.6-5.4c-.525-1.5-1.35-2.55-2.625-2.55-2.1.075-2.775,2.25-2.775,5.475A12.435,12.435,0,0,0,56.55,89.1c1.2,2.1,2.775,4.275,4.35,6.6a84.735,84.735,0,0,1,5.175,8.4,18.907,18.907,0,0,1,2.4,8.625c0,3.675-.6,7.125-2.325,9.675s-4.5,4.2-8.925,4.2c-5.175,0-8.1-1.95-9.75-4.95s-2.025-6.975-2.025-11.1l7.95-.75a20.8,20.8,0,0,0,.675,6.375c.525,1.8,1.425,3,3.15,3,2.4,0,3.3-2.55,3.3-6.075a13.7,13.7,0,0,0-2.1-6.075c-.675-1.05-1.35-2.175-2.1-3.3-1.575-2.25-3.3-4.8-5.1-7.575A31.444,31.444,0,0,1,47.25,87.6a14.727,14.727,0,0,1-.675-4.425,15.4,15.4,0,0,1,2.4-8.7,9.832,9.832,0,0,1,8.175-4.2c4.875-.075,7.725,1.95,9.3,4.875a21.51,21.51,0,0,1,2.025,9.75Zm35.25,21.45v7.575a15.018,15.018,0,0,1-1.35,6,10.319,10.319,0,0,1-3.225,4.05,9.627,9.627,0,0,1-6.225,1.875,9.852,9.852,0,0,1-6.3-1.875,10.111,10.111,0,0,1-3.15-4.05,15.019,15.019,0,0,1-1.35-6V82.2a14.948,14.948,0,0,1,1.35-5.925,9.509,9.509,0,0,1,9.45-6A10.081,10.081,0,0,1,91.2,72.15a10.53,10.53,0,0,1,3.225,4.125,14.948,14.948,0,0,1,1.35,5.925v7.575H88.2V82.2A4.723,4.723,0,0,0,87,78.75a2.728,2.728,0,0,0-4.35,1.425,8.105,8.105,0,0,0-.375,2.025v32.475a5.173,5.173,0,0,0,1.275,3.45,2.148,2.148,0,0,0,1.575.6A2.612,2.612,0,0,0,87.9,116.7a5.243,5.243,0,0,0,.3-2.025V107.1Zm27.825,7.575a15.018,15.018,0,0,1-1.35,6,10.319,10.319,0,0,1-3.225,4.05A9.627,9.627,0,0,1,112.8,126.6a9.852,9.852,0,0,1-6.3-1.875,10.111,10.111,0,0,1-3.15-4.05,15.019,15.019,0,0,1-1.35-6V82.2a14.948,14.948,0,0,1,1.35-5.925,9.509,9.509,0,0,1,9.45-6,10.081,10.081,0,0,1,6.225,1.875,10.53,10.53,0,0,1,3.225,4.125A14.948,14.948,0,0,1,123.6,82.2ZM115.5,82.2a5,5,0,0,0-1.05-3.45,2.335,2.335,0,0,0-1.65-.6,2.505,2.505,0,0,0-2.4,2.025,5.748,5.748,0,0,0-.3,2.025v32.475a4.777,4.777,0,0,0,1.125,3.45,2.148,2.148,0,0,0,1.575.6,2.369,2.369,0,0,0,2.4-2.025,5.243,5.243,0,0,0,.3-2.025Z" transform="translate(-0.675 55.725)" fill="#000"/>
</svg>
